
<svg xmlns="http://www.w3.org/2000/svg" id="Layer_1" data-name="Layer 1" viewBox="0 0 388 128.96"><defs><style>      .cls-1, .cls-2 {        fill: #183859;      }      .cls-3 {        fill: #a2b9cb;      }      .cls-3, .cls-2, .cls-4 {        fill-rule: evenodd;      }      .cls-4 {        fill: #0084b0;      }    </style></defs><path class="cls-4" d="M106.84,52.97s-.03-.05-.05-.07c-8.17-12.34-22-19.67-36.82-16.56-18.16,3.81-29.75,21.7-25.88,39.93,3.88,18.23,21.76,29.94,39.92,26.13,5.7-1.2,10.76-3.78,14.89-7.33-6.35,8.13-15.49,14.14-26.36,16.42-24.58,5.15-48.79-10.7-54.03-35.37-5.25-24.68,10.45-48.89,35.02-54.05,23.14-4.85,46.34,8.68,53.31,30.9"></path><path class="cls-3" d="M88.57,122.57c-5.87,2.28-12.18,3.74-18.79,4.23C34.37,129.42,3.53,103.18,.94,68.24-1.64,33.29,25.01,2.8,60.41,.18c25.37-1.88,47.27,11.15,59.23,31.5-11.19-11.3-25.2-18-43.7-16.63-33.51,2.48-54.33,28.36-52.13,58.17,2.21,29.82,29.14,52.16,60.12,49.87,1.56-.12,3.11-.29,4.63-.53h0Z"></path><path class="cls-2" d="M12.71,26.77c-3.16,8.51-4.58,17.82-3.87,27.46,2.66,35.92,33.97,62.92,69.89,60.26,18.4-1.36,34.47-10.25,45.4-23.42-4.74,10.46-12.35,19.8-22.59,26.72-29.56,20.01-69.87,12.4-89.96-16.99C-4.17,77.77-2.85,48.14,12.71,26.77h0Z"></path><path class="cls-1" d="M63.09,88.07h15.18c13.76,0,21.11-9.01,21.11-20.76s-7.18-20.05-20.52-20.05h-15.78v40.8h0Zm7.95-33.63h7.47c8.72,0,12.81,5.87,12.81,13.11s-4.21,13.34-13.05,13.34h-7.24v-26.45h0Z"></path><path class="cls-1" d="M116.77,72.06l5.69-17.2,5.57,17.2h-11.27Zm22.21,32.44h85.5v-6.31h-79.37l-17.32-50.92h-10.32l-14.08,40.89h8.22l2.96-9.4h15.66l8.75,25.74h0Z"></path><path class="cls-1" d="M176.82,47.27h-31.85l-1.9,7.24h13.7v33.57h7.95V54.5h12.1v-7.24h0Z"></path><path class="cls-1" d="M178.69,88.07h8.07l3.08-9.31h15.66l3.02,9.31h8.42l-13.88-40.8h-10.32l-14.06,40.8Zm13.34-16.01l5.69-17.2,5.57,17.2h-11.27Z"></path><path class="cls-1" d="M224.59,88.07h7.95v-16.96h13.34l1.9-7.18h-15.24v-9.43h17.67l1.96-7.24h-27.58v40.8Z"></path><path class="cls-1" d="M259.47,88.07h24.91l1.84-7.24h-18.8V47.27h-7.95v40.8Z"></path><path class="cls-1" d="M309.39,53.5c9.13,0,13.94,6.94,13.94,14.06s-4.81,14.29-13.94,14.29-13.94-7-13.94-14.29,4.8-14.06,13.94-14.06h0Zm0-7.29c-14.41,0-22.06,10.02-22.06,21.35s7.65,21.59,22.06,21.59,22.06-10.14,22.06-21.59-7.65-21.35-22.06-21.35Z"></path><path class="cls-1" d="M344.47,88.07h9.01l8.06-29.06,7.95,29.06h9.19l9.31-40.8h-8.24l-6.05,29.59-7.89-29.59h-8.12l-7.95,29.59-5.99-29.59h-8.48l9.19,40.8h0Z"></path><g><path class="cls-1" d="M233.75,116.73l1.31-2.94c1.63,1.31,4.22,2.24,6.72,2.24,3.17,0,4.51-1.13,4.51-2.65,0-4.39-12.09-1.51-12.09-9.07,0-3.28,2.62-6.08,8.2-6.08,2.44,0,5,.64,6.77,1.8l-1.19,2.94c-1.83-1.08-3.84-1.6-5.61-1.6-3.14,0-4.42,1.22-4.42,2.76,0,4.33,12.06,1.51,12.06,8.98,0,3.26-2.65,6.05-8.23,6.05-3.17,0-6.34-.99-8.02-2.44Z"></path><path class="cls-1" d="M268.29,115.72v3.17h-15.26v-20.35h14.85v3.17h-11.08v5.29h9.83v3.11h-9.83v5.61h11.48Z"></path><path class="cls-1" d="M270.23,108.71c0-6.08,4.65-10.47,10.9-10.47,3.31,0,6.16,1.19,8.05,3.4l-2.44,2.3c-1.48-1.6-3.31-2.38-5.44-2.38-4.22,0-7.27,2.97-7.27,7.15s3.05,7.15,7.27,7.15c2.12,0,3.95-.78,5.44-2.41l2.44,2.33c-1.89,2.21-4.74,3.4-8.08,3.4-6.22,0-10.87-4.39-10.87-10.47Z"></path><path class="cls-1" d="M291.77,110.02v-11.48h3.78v11.34c0,4.19,1.89,5.99,5.17,5.99s5.15-1.8,5.15-5.99v-11.34h3.72v11.48c0,5.93-3.34,9.16-8.9,9.16s-8.92-3.23-8.92-9.16Z"></path><path class="cls-1" d="M327.47,118.89l-4.16-5.96c-.26,.03-.52,.03-.78,.03h-4.59v5.93h-3.78v-20.35h8.37c5.35,0,8.66,2.73,8.66,7.24,0,3.08-1.57,5.35-4.33,6.42l4.68,6.69h-4.07Zm-5.12-17.15h-4.42v8.11h4.42c3.31,0,5.03-1.51,5.03-4.07s-1.72-4.04-5.03-4.04Z"></path><path class="cls-1" d="M334.68,98.54h3.78v20.35h-3.78v-20.35Z"></path><path class="cls-1" d="M347.36,101.73h-6.74v-3.2h17.27v3.2h-6.74v17.15h-3.78v-17.15Z"></path><path class="cls-1" d="M368.49,111.71v7.18h-3.78v-7.12l-7.99-13.23h4.04l5.96,9.91,6.02-9.91h3.72l-7.96,13.17Z"></path></g></svg>